<svg width="100" height="25" viewBox="0 0 100 25" xmlns="http://www.w3.org/2000/svg"><g fill="none"><path d="M98.233 5.156c-1 -1.1 -2.4 -1.7 -3.922 -1.7 -0.544 0 -1.089 0.1 -1.644 0.289 -0.133 -0.033 -0.278 -0.056 -0.422 -0.056h-5.811c-0.756 0 -1.4 0.544 -1.533 1.256 -1.056 -0.844 -2.589 -1.511 -4.822 -1.511 -1.978 0 -3.411 0.522 -4.444 1.233 -0.267 -0.411 -0.678 -0.733 -1.167 -0.878 -0.122 -1.067 -1.033 -1.889 -2.133 -1.889h-4.344c-0.022 -0.056 -0.044 -0.111 -0.067 -0.156 -0.4 -0.922 -1.311 -1.511 -2.322 -1.511H49.833c-0.433 0 -0.833 0.178 -1.133 0.489L48.544 0.889l-3.467 3.622c-0.144 0.156 -0.267 0.311 -0.367 0.489 -1.2 -0.944 -2.7 -1.5 -4.333 -1.5h-1.089c-2 0 -3.811 0.844 -5.089 2.189 -0.389 -0.6 -0.922 -1.1 -1.589 -1.489 -0.878 -0.522 -1.878 -0.789 -2.967 -0.789h-0.067c-1.1 0.011 -2.122 0.3 -3.022 0.878 -0.889 -0.578 -1.922 -0.878 -3.056 -0.878h-0.033c-0.822 0 -1.578 0.144 -2.267 0.433 -0.256 -0.1 -0.533 -0.167 -0.833 -0.167h-4.689c-0.189 0 -0.378 0.022 -0.556 0.078 -0.233 -0.444 -0.544 -0.911 -0.956 -1.356 -1 -1.089 -2.878 -2.389 -6.144 -2.389h-0.489C3.411 0.011 0.056 3.367 0.056 7.489v6.967c0 1.956 0.767 3.856 2.111 5.2 1.367 1.378 3.2 2.144 5.144 2.144 0.989 0 1.811 -0.256 2.467 -0.556 0.356 0.189 0.756 0.289 1.178 0.289H13.778c0.311 0 0.611 -0.067 0.878 -0.189 0.3 0.167 0.656 0.256 1.022 0.256h4.678c0.278 0 0.556 -0.056 0.8 -0.156 0.244 0.1 0.522 0.156 0.8 0.156h4.667c0.278 0 0.556 -0.056 0.8 -0.156 0.244 0.1 0.511 0.156 0.8 0.156h4.667c0.922 0 1.711 -0.578 2.022 -1.378 1.2 0.956 2.722 1.533 4.367 1.533h1.089c1.611 0 3.1 -0.544 4.289 -1.467 0.433 0.833 1.3 1.356 2.244 1.356h15.922c0.444 0 0.856 -0.189 1.156 -0.511l0.167 -0.178 1.911 -2.089c0.367 0.822 0.967 1.5 1.767 2 1.222 0.767 2.644 0.933 3.622 0.933h0.189c1.367 0 2.533 -0.344 2.856 -0.444 0.011 0 0.022 -0.011 0.033 -0.011 0.411 -0.133 0.756 -0.4 1 -0.722 1.178 0.778 2.7 1.178 4.533 1.178 1.978 0 3.578 -0.456 4.789 -1.356v2.911c0 0.867 0.7 1.567 1.567 1.567H92.222c0.867 0 1.567 -0.7 1.567 -1.567v-1.644c0.189 0.022 0.378 0.033 0.567 0.033 1.711 0 3.189 -0.7 4.178 -1.978 0.911 -1.178 1.389 -2.822 1.389 -4.767V10.389c0.011 -2.244 -0.556 -4 -1.689 -5.233Zm0.678 9.811c0 1.622 -0.344 2.944 -1.022 3.933 -0.8 1.167 -2.022 1.789 -3.522 1.789 -0.544 0 -1.078 -0.1 -1.589 -0.311V22.778c0 0.6 -0.489 1.089 -1.089 1.089h-4.733c-0.6 0 -1.089 -0.489 -1.089 -1.089v-5.311c-0.1 0.233 -0.211 0.456 -0.344 0.678 -1.033 1.722 -2.878 2.6 -5.467 2.6 -2.333 0 -4.056 -0.7 -5.133 -2.089v0.667c0 0.467 -0.3 0.878 -0.744 1.033 -0.044 0.011 -1.211 0.4 -2.556 0.4h-0.2c-0.256 0 -0.511 -0.011 -0.756 -0.033h-0.067c-0.022 0 -0.056 -0.011 -0.078 -0.011h-0.022c-0.011 0 -0.033 0 -0.044 -0.011 -0.022 0 -0.044 -0.011 -0.067 -0.011 -0.1 -0.011 -0.2 -0.033 -0.3 -0.044h-0.011c-0.067 -0.011 -0.122 -0.022 -0.189 -0.044 -0.056 -0.011 -0.122 -0.022 -0.189 -0.044 -0.067 -0.022 -0.133 -0.033 -0.2 -0.056 -0.133 -0.044 -0.267 -0.089 -0.389 -0.133 0 0 -0.011 0 -0.022 -0.011 -0.044 -0.022 -0.1 -0.044 -0.144 -0.056 -0.011 0 -0.022 -0.011 -0.033 -0.011 -0.056 -0.022 -0.111 -0.044 -0.167 -0.078 -0.011 0 -0.022 -0.011 -0.033 -0.011 -0.056 -0.022 -0.122 -0.056 -0.189 -0.1 -0.067 -0.033 -0.133 -0.078 -0.178 -0.111h-0.011c-0.011 -0.011 -0.033 -0.022 -0.044 -0.033l-0.022 -0.011c-0.011 -0.011 -0.022 -0.022 -0.033 -0.022 -0.056 -0.033 -0.111 -0.078 -0.167 -0.111 -0.056 -0.033 -0.111 -0.078 -0.167 -0.133 -0.011 -0.011 -0.022 -0.022 -0.033 -0.022h-0.011c-0.044 -0.033 -0.078 -0.078 -0.122 -0.111l-0.011 -0.011 -0.056 -0.056 -0.078 -0.078c-0.033 -0.033 -0.078 -0.078 -0.111 -0.122 -0.011 -0.011 -0.022 -0.033 -0.044 -0.056l-0.022 -0.033c-0.033 -0.044 -0.056 -0.078 -0.078 -0.1 -0.044 -0.056 -0.078 -0.1 -0.111 -0.156 -0.011 -0.011 -0.022 -0.022 -0.022 -0.033l-0.1 -0.167c-0.022 -0.044 -0.067 -0.111 -0.1 -0.178 -0.022 -0.044 -0.044 -0.078 -0.056 -0.122 -0.011 -0.033 -0.033 -0.067 -0.044 -0.1 -0.022 -0.044 -0.044 -0.122 -0.078 -0.2 -0.022 -0.044 -0.033 -0.1 -0.044 -0.144l-0.033 -0.1c-0.011 -0.044 -0.022 -0.1 -0.033 -0.144 0 -0.011 -0.011 -0.022 -0.011 -0.044 -0.011 -0.033 -0.011 -0.067 -0.022 -0.089 -0.011 -0.033 -0.011 -0.067 -0.022 -0.1 -0.011 -0.044 -0.011 -0.078 -0.022 -0.122v-0.067l-0.011 -0.1v-0.011c-0.011 -0.144 -0.022 -0.311 -0.022 -0.478l-3.244 3.533c-0.2 0.222 -0.5 0.356 -0.8 0.356H46.9c-0.611 0 -1.156 -0.356 -1.389 -0.922 -0.189 -0.444 -0.278 -1.244 -0.078 -1.767 -1.067 1.678 -2.933 2.789 -5.067 2.789h-1.089c-2.3 0 -4.3 -1.3 -5.311 -3.211v1.911c0 0.6 -0.489 1.089 -1.089 1.089h-4.667c-0.311 0 -0.6 -0.133 -0.8 -0.344 -0.2 0.211 -0.478 0.344 -0.8 0.344h-4.667c-0.311 0 -0.6 -0.133 -0.8 -0.356 -0.2 0.211 -0.478 0.356 -0.8 0.356H15.667c-0.411 0 -0.767 -0.222 -0.944 -0.556 -0.189 0.333 -0.544 0.556 -0.956 0.556H10.944c-0.233 0 -0.689 -0.056 -1.1 -0.478 -0.567 0.356 -1.433 0.744 -2.533 0.744 -1.667 0 -3.233 -0.656 -4.411 -1.833 -1.144 -1.156 -1.811 -2.789 -1.811 -4.478V7.5c0 -3.556 2.889 -6.444 6.444 -6.444h0.489c2.9 0 4.522 1.111 5.378 2.056 0.6 0.656 1.044 1.478 1.278 2.322 0.167 -0.378 0.556 -0.656 0.989 -0.656h4.689c0.3 0 0.567 0.122 0.767 0.322 0.689 -0.389 1.467 -0.589 2.344 -0.589h0.178c0.089 0 0.178 0.011 0.289 0.022h0.022c0.044 0 0.1 0.011 0.144 0.011 0.089 0.011 0.178 0.022 0.289 0.044 0.144 0.022 0.278 0.056 0.422 0.1 0.1 0.022 0.189 0.056 0.289 0.089 0.033 0.011 0.078 0.033 0.133 0.056 0.033 0.011 0.078 0.033 0.122 0.044 0.033 0.011 0.056 0.022 0.078 0.033l0.133 0.067 0.133 0.067c0.044 0.022 0.089 0.044 0.122 0.067 0.033 0.022 0.078 0.044 0.111 0.067 0.1 0.056 0.189 0.122 0.289 0.189 0 0 0.011 0 0.011 0.011l0.022 0.011c0.033 0.022 0.056 0.044 0.089 0.067 0.078 0.056 0.144 0.122 0.222 0.189 0.867 -0.744 1.889 -1.144 3.044 -1.144h0.056c0.089 0 0.167 0 0.244 0.011 0.078 0 0.156 0.011 0.222 0.011h0.022c0.122 0.011 0.222 0.022 0.311 0.033 0.044 0.011 0.078 0.011 0.122 0.022 0.022 0 0.044 0.011 0.078 0.011 0.033 0.011 0.056 0.011 0.078 0.022 0.067 0.011 0.133 0.033 0.178 0.044l0.233 0.067c0.078 0.022 0.144 0.044 0.222 0.078 0.067 0.022 0.133 0.056 0.211 0.078l0.133 0.067c0.122 0.056 0.244 0.122 0.356 0.189 0.856 0.5 1.411 1.222 1.656 2.122 0.056 0.211 0.1 0.444 0.144 0.722 0.956 -2.044 3.033 -3.456 5.433 -3.456h1.089c1.7 0 3.244 0.711 4.333 1.856l4.578 -4.778c0.2 -0.211 0.489 -0.333 0.789 -0.333h15.533c0.6 0 1.144 0.356 1.378 0.9 0.144 0.333 0.167 0.689 0.067 1.022 0.189 -0.156 0.433 -0.244 0.711 -0.244h4.567c0.622 0 1.122 0.5 1.122 1.122v0.678h0.4c0.6 0 1.089 0.489 1.089 1.089v0.933c1.1 -1.522 2.822 -2.289 5.133 -2.289 2.444 0 4.233 0.867 5.322 2.567 0.189 0.289 0.356 0.611 0.5 0.956V5.8c0 -0.6 0.489 -1.089 1.089 -1.089h4.733c0.267 0 0.511 0.1 0.7 0.256 0.544 -0.267 1.211 -0.489 1.911 -0.489 1.333 0 2.522 0.556 3.333 1.567 0.844 1.044 1.278 2.489 1.278 4.311v4.611h-0.056Z" fill="#000"></path><path d="M8.022 2.1h-0.489c-2.956 0 -5.367 2.4 -5.367 5.367v6.967c0 1.389 0.522 2.733 1.489 3.711 0.978 0.978 2.267 1.522 3.644 1.522 1.522 0 2.467 -0.967 2.478 -0.978l0.422 -0.444s0.167 1.144 0.733 1.144H13.778V10.489H8.144v2.744h1.311V15.556c0 0.222 -0.067 0.422 -0.167 0.6 -0.022 0.033 -0.044 0.067 -0.067 0.089 -0.067 0.089 -0.144 0.167 -0.233 0.233 -0.033 0.022 -0.056 0.044 -0.089 0.067 -0.178 0.111 -0.378 0.167 -0.6 0.167H8.222c-0.611 -0.044 -1.078 -0.578 -1.078 -1.2V5.856c0 -0.456 0.367 -0.822 0.822 -0.822 0.033 0 0.078 0 0.111 0.011 0.411 0.056 0.711 0.422 0.711 0.844v2.811h5v-2C13.778 5.111 12.578 2.1 8.022 2.1Zm23.478 3.944c-0.089 -0.056 -0.189 -0.1 -0.278 -0.144 -0.033 -0.011 -0.056 -0.022 -0.089 -0.044l-0.167 -0.067c-0.056 -0.022 -0.111 -0.044 -0.167 -0.056 -0.056 -0.022 -0.111 -0.033 -0.167 -0.044 -0.044 -0.011 -0.089 -0.022 -0.144 -0.033 -0.022 0 -0.044 -0.011 -0.067 -0.011 -0.022 0 -0.044 -0.011 -0.067 -0.011 -0.033 -0.011 -0.056 -0.011 -0.089 -0.011 -0.078 -0.011 -0.167 -0.022 -0.244 -0.033 -0.067 0 -0.122 -0.011 -0.189 -0.011h-0.244c-1.244 0.011 -2.267 0.578 -3.067 1.7 -0.044 -0.067 -0.089 -0.144 -0.144 -0.211 -0.022 -0.033 -0.056 -0.078 -0.089 -0.111 -0.022 -0.022 -0.044 -0.056 -0.067 -0.078 -0.022 -0.033 -0.056 -0.067 -0.078 -0.089 -0.044 -0.044 -0.078 -0.089 -0.122 -0.133l-0.122 -0.122 -0.078 -0.078c-0.056 -0.056 -0.122 -0.111 -0.178 -0.156 -0.033 -0.022 -0.067 -0.044 -0.089 -0.078 -0.067 -0.056 -0.133 -0.1 -0.211 -0.144 -0.022 -0.022 -0.056 -0.033 -0.078 -0.044 -0.033 -0.022 -0.067 -0.033 -0.1 -0.056 -0.033 -0.022 -0.067 -0.033 -0.1 -0.056 -0.033 -0.011 -0.056 -0.033 -0.089 -0.044l-0.067 -0.033c-0.022 -0.011 -0.056 -0.022 -0.089 -0.033l-0.1 -0.033c-0.067 -0.022 -0.133 -0.044 -0.211 -0.067 -0.111 -0.033 -0.211 -0.056 -0.322 -0.078 -0.078 -0.011 -0.144 -0.022 -0.222 -0.033 -0.033 0 -0.078 -0.011 -0.111 -0.011 -0.078 -0.011 -0.156 -0.011 -0.233 -0.011h-0.144c-1.333 0.011 -2.378 0.578 -3.111 1.7v-1.444h-4.689v13.556h4.678V9.489c0 -0.244 0.089 -0.467 0.233 -0.622 0.144 -0.156 0.344 -0.256 0.567 -0.256 0.444 0 0.8 0.4 0.8 0.878v9.9h4.667V9.489c0 -0.244 0.089 -0.467 0.233 -0.622 0.144 -0.156 0.344 -0.256 0.567 -0.256 0.444 0 0.8 0.4 0.8 0.878v9.9h4.667V10.189c0 -1.222 -0.078 -2.1 -0.222 -2.667 -0.167 -0.633 -0.556 -1.122 -1.167 -1.478Zm8.867 -0.456h-1.089c-2.711 0 -4.911 2.2 -4.911 4.911v4.189c0 2.711 2.2 4.911 4.911 4.911h1.089c2.711 0 4.911 -2.2 4.911 -4.911v-0.7h-4.422v2.378c0 0.467 -0.333 0.889 -0.8 0.956 -0.044 0 -0.078 0.011 -0.122 0.011 -0.111 0 -0.222 -0.022 -0.322 -0.056 -0.022 -0.011 -0.056 -0.022 -0.078 -0.033 -0.056 -0.022 -0.111 -0.056 -0.156 -0.089 -0.022 -0.022 -0.044 -0.033 -0.067 -0.056 -0.089 -0.078 -0.167 -0.178 -0.211 -0.289 -0.011 -0.022 -0.022 -0.056 -0.033 -0.078 -0.033 -0.1 -0.056 -0.211 -0.056 -0.322v-3.478h6.278V10.511c-0.011 -2.722 -2.211 -4.922 -4.922 -4.922Zm0.278 5.178H39V8.756c0 -0.456 0.367 -0.822 0.822 -0.822 0.456 0 0.822 0.367 0.822 0.822v2.011Z" fill="#FFF"></path><path d="M80.067 5.544c-4.456 0 -5.467 3.156 -5.467 7.056s0.656 7.056 5.467 7.056c4.811 0 5.467 -3.156 5.467 -7.056s-1.011 -7.056 -5.467 -7.056Zm0.833 10.867c0 0.233 -0.089 0.444 -0.244 0.589 -0.156 0.156 -0.367 0.244 -0.589 0.244 -0.467 0 -0.844 -0.378 -0.844 -0.844v-7.667c0 -0.467 0.378 -0.844 0.844 -0.844 0.467 0 0.844 0.378 0.844 0.844v7.678h-0.011Zm13.4 -10.844c-1.222 0 -2.344 0.933 -2.611 1.178v-0.944h-4.733V22.778h4.733v-4.411c0.6 0.6 1.522 1.233 2.678 1.233 2.4 0 3.456 -1.967 3.456 -4.633V10.356c0 -3.289 -1.578 -4.789 -3.522 -4.789Zm-1.033 10.456c0 0.211 -0.089 0.389 -0.233 0.533 -0.144 0.133 -0.344 0.222 -0.556 0.222 -0.433 0 -0.789 -0.333 -0.789 -0.744V9.211c0 -0.411 0.356 -0.744 0.789 -0.744 0.433 0 0.789 0.333 0.789 0.744v6.811ZM72.356 5.533V4.044c0 -0.022 -0.022 -0.033 -0.033 -0.033h-4.567c-0.022 0 -0.033 0.022 -0.033 0.033v1.756l-0.278 0.011h-0.744V7.667h1.011l0.011 0.278V16.667c0 0.133 0.011 0.267 0.022 0.389 0 0.033 0.011 0.067 0.011 0.089 0 0.022 0 0.033 0.011 0.056 0 0.033 0.011 0.056 0.011 0.089v0.011c0 0.022 0.011 0.044 0.011 0.067 0 0.022 0.011 0.044 0.011 0.067 0 0.011 0 0.022 0.011 0.033 0.011 0.033 0.022 0.078 0.033 0.111 0 0.022 0.011 0.033 0.011 0.044 0.011 0.044 0.022 0.078 0.044 0.122 0.011 0.044 0.033 0.089 0.056 0.144 0.011 0.022 0.022 0.044 0.033 0.078 0.011 0.022 0.022 0.056 0.033 0.078 0.022 0.044 0.044 0.078 0.067 0.122 0.022 0.044 0.044 0.078 0.078 0.122l0.011 0.011c0.022 0.044 0.056 0.078 0.089 0.122 0.011 0.022 0.022 0.033 0.044 0.056 0.011 0.022 0.033 0.033 0.044 0.056 0 0.011 0.011 0.011 0.011 0.022 0.022 0.033 0.056 0.067 0.089 0.089 0.011 0.022 0.033 0.033 0.056 0.056s0.033 0.033 0.056 0.044c0.033 0.033 0.067 0.056 0.089 0.089 0.044 0.033 0.078 0.067 0.122 0.1 0.044 0.033 0.089 0.067 0.133 0.089 0.022 0.011 0.044 0.033 0.067 0.044 0.044 0.022 0.089 0.056 0.133 0.078 0.044 0.022 0.089 0.056 0.144 0.078 0.044 0.022 0.1 0.044 0.144 0.067 0.044 0.022 0.1 0.044 0.144 0.067 0.1 0.033 0.2 0.078 0.311 0.1 0.056 0.011 0.1 0.033 0.156 0.044 0.056 0.011 0.111 0.022 0.156 0.033l0.167 0.033c0.078 0.011 0.167 0.033 0.244 0.044 0.044 0.011 0.078 0.011 0.122 0.022 0.044 0 0.078 0.011 0.122 0.011 0.222 0.022 0.433 0.033 0.644 0.033h0.211l-0.011 0.011c1.189 0 2.211 -0.344 2.211 -0.344v-1.889H73.111c-0.4 0 -0.722 -0.322 -0.722 -0.722V7.7l0.278 -0.011h1.211V5.811h-1.489l-0.033 -0.278ZM65.6 2.333H50.067l-3.467 3.622c-0.256 0.267 -0.067 0.722 0.3 0.722h15.678l3.322 -3.622c0.256 -0.289 0.067 -0.722 -0.3 -0.722Zm-3.011 6.411H46.9c-0.378 0 -0.567 0.444 -0.3 0.722l3.467 3.622h15.533c0.367 0 0.556 -0.433 0.311 -0.711l-3.322 -3.633Zm3.011 6.422H50.067L46.6 18.778c-0.256 0.267 -0.067 0.722 0.3 0.722h15.678l3.322 -3.622c0.256 -0.278 0.067 -0.711 -0.3 -0.711Z" fill="#FC0200"></path></g></svg>