<?xml version="1.0" standalone="no"?>
<!DOCTYPE svg PUBLIC "-//W3C//DTD SVG 20010904//EN"
 "http://www.w3.org/TR/2001/REC-SVG-20010904/DTD/svg10.dtd">
<svg version="1.0" xmlns="http://www.w3.org/2000/svg"
 width="628.000000pt" height="576.000000pt" viewBox="0 0 628.000000 576.000000"
 preserveAspectRatio="xMidYMid meet">

<g transform="translate(0.000000,576.000000) scale(0.100000,-0.100000)"
fill="#000000" stroke="none">
<path d="M1328 5524 c-38 -20 -54 -74 -34 -112 21 -40 62 -54 106 -36 31 13
35 13 51 -3 9 -10 200 -247 424 -528 224 -280 420 -522 434 -538 24 -27 25
-28 8 -56 -37 -63 -8 -149 59 -177 30 -13 44 -13 84 -3 42 11 51 18 69 54 25
50 26 64 7 110 -27 63 -105 90 -177 60 -13 -5 -68 57 -241 272 -124 153 -237
292 -251 308 -14 17 -116 141 -225 278 -199 247 -200 247 -195 290 4 36 1 46
-21 66 -30 29 -63 34 -98 15z"/>
<path d="M339 4591 c-37 -37 -39 -82 -5 -116 34 -33 70 -41 101 -21 29 19 37
16 97 -39 23 -22 77 -70 118 -106 114 -100 445 -393 535 -474 79 -71 539 -478
705 -624 111 -97 230 -203 300 -266 30 -28 68 -60 84 -73 l29 -22 -21 -44
c-24 -48 -24 -84 2 -134 45 -88 175 -97 233 -16 l19 26 81 -18 c69 -14 82 -21
87 -40 14 -55 78 -72 117 -33 19 19 29 21 77 15 95 -11 103 -15 100 -45 -3
-25 -6 -26 -70 -29 l-68 -3 -2 -177 -3 -177 -107 -3 -108 -3 0 -185 0 -185
-142 3 -143 3 -3 182 -2 182 -103 3 -102 3 -3 178 -2 177 -275 0 -275 0 0
-1120 0 -1120 275 0 275 0 2 547 3 548 35 0 35 0 3 -182 2 -183 280 0 280 0 2
183 3 182 35 0 35 0 3 -547 2 -548 275 0 275 0 0 1013 c0 558 3 1016 6 1020 6
5 162 -102 210 -145 20 -18 21 -21 7 -50 -44 -88 44 -202 142 -184 20 4 51 21
70 37 l35 31 244 -174 c135 -95 248 -179 251 -186 10 -27 -7 -32 -106 -32
l-99 0 0 -480 0 -479 103 -3 102 -3 3 -87 3 -87 102 -3 102 -3 3 -92 3 -93
489 0 489 0 3 92 3 93 103 3 102 3 0 89 0 90 105 0 105 0 0 480 0 479 -102 3
-103 3 -3 87 -3 87 -102 3 -102 3 -3 93 -3 92 -489 0 -489 0 -3 -92 -3 -93
-102 -3 -103 -3 0 -54 c0 -33 -4 -55 -11 -55 -10 0 -167 109 -384 266 l-100
72 -1 45 c0 25 -8 57 -18 71 -36 56 -111 80 -167 52 -17 -9 -36 -16 -41 -16
-15 0 -228 161 -238 180 -6 10 -10 53 -10 94 l0 76 -65 0 c-44 0 -67 4 -69 13
-23 78 -39 105 -75 125 -21 12 -54 22 -72 22 l-34 0 -24 153 c-13 83 -25 160
-27 170 -2 11 6 31 17 47 26 35 22 67 -13 93 -27 20 -28 20 -66 2 -32 -16 -37
-23 -34 -46 5 -34 36 -69 61 -69 20 0 18 9 52 -218 l20 -134 -40 -39 -40 -40
-77 11 c-43 5 -78 11 -78 13 -1 1 -8 16 -16 32 -20 39 -74 46 -110 15 -13 -12
-31 -18 -39 -15 -9 4 -42 11 -73 17 -56 10 -58 11 -58 41 0 45 -38 116 -74
138 -23 15 -42 19 -76 15 -25 -3 -57 -6 -72 -8 -22 -3 -91 54 -449 372 -435
386 -570 505 -699 619 -41 36 -102 91 -135 121 -34 30 -135 120 -226 200 -354
312 -341 300 -336 330 3 14 -1 39 -8 57 -25 60 -89 71 -136 24z m4881 -3111
l0 -89 108 -3 107 -3 0 -245 0 -245 -107 -3 -108 -3 0 -90 0 -90 -142 3 -143
3 -3 87 -3 87 -102 3 -102 3 0 245 0 245 25 -4 c23 -3 173 -101 185 -121 3 -5
-1 -30 -10 -56 -21 -62 -7 -110 45 -158 34 -30 47 -36 86 -36 79 0 136 44 153
120 27 121 -99 216 -213 161 l-45 -22 -70 51 c-39 28 -71 56 -71 61 0 5 27 9
60 9 l60 0 0 83 c0 46 3 87 7 90 3 4 69 7 145 7 l138 0 0 -90z"/>
<path d="M2512 4050 c0 -14 2 -19 5 -12 2 6 2 18 0 25 -3 6 -5 1 -5 -13z"/>
<path d="M2542 3935 c0 -11 4 -31 8 -45 6 -20 8 -21 8 -5 0 11 -4 31 -8 45 -6
20 -8 21 -8 5z"/>
<path d="M2561 3845 c0 -11 4 -29 9 -40 l9 -20 0 20 c0 11 -4 29 -9 40 l-9 20
0 -20z"/>
<path d="M2581 3764 c0 -11 3 -14 6 -6 3 7 2 16 -1 19 -3 4 -6 -2 -5 -13z"/>
<path d="M2592 3720 c0 -14 2 -19 5 -12 2 6 2 18 0 25 -3 6 -5 1 -5 -13z"/>
<path d="M2604 3667 c3 -12 10 -46 17 -75 6 -30 13 -51 15 -49 6 6 -26 147
-33 147 -3 0 -3 -10 1 -23z"/>
<path d="M2643 3500 c3 -9 12 -50 22 -93 9 -43 20 -76 22 -73 7 6 -26 146 -39
166 -8 13 -9 13 -5 0z"/>
<path d="M2678 3275 c-23 -31 -23 -50 3 -76 16 -16 28 -20 52 -15 20 4 54 -1
95 -15 84 -28 90 -19 7 10 -61 22 -64 24 -59 51 12 58 -64 93 -98 45z"/>
</g>
</svg>
